# xmcd
#
# Track frame offsets: 
#        150
#        31669
#        64322
#        89157
#        120401
#        146046
#        174850
#        188390
#        210285
#        225710
#        235312
#        247522
#        260435
#        271837
#        285920
#        299362
#
# Disc length: 4477 seconds
#
# Revision: 2
# Processed by: cddbd v1.5.2PL0 Copyright (c) Steve Scherf et al.
# Submitted via: ExactAudioCopyFreeDBPlugin 1.0
#
DISCID=d3117b10
DTITLE=King Curtis - King Curtis:  Seven Classic Albums
DYEAR=2012
DGENRE=Rhythm and Blues
TTITLE0=Soul Meeting
TTITLE1=Lazy Soul
TTITLE2=All the Way
TTITLE3=Jeep's Blues
TTITLE4=What is This Thing Called Love
TTITLE5=Do You Have Soul Now
TTITLE6=Trouble in Mind
TTITLE7=Jivin' Time
TTITLE8=Nobody Knows When You're Down and Out
TTITLE9=Bad, Bad Whiskey
TTITLE10=I Have to Worry
TTITLE11=Woke Up in the Morning
TTITLE12=But That's Alright
TTITLE13=Ain't Nobody's Business
TTITLE14=Don't Deceive Me
TTITLE15=Deep Fry
EXTD=
EXTT0=
EXTT1=
EXTT2=
EXTT3=
EXTT4=
EXTT5=
EXTT6=
EXTT7=
EXTT8=
EXTT9=
EXTT10=
EXTT11=
EXTT12=
EXTT13=
EXTT14=
EXTT15=
PLAYORDER=
